<svg class="rich-terminal" viewBox="0 0 1482 1074.8" xmlns="http://www.w3.org/2000/svg">
    <!-- Generated with Rich https://www.textualize.io -->
    <style>

    @font-face {
        font-family: "Fira Code";
        src: local("FiraCode-Regular"),
                url("https://cdnjs.cloudflare.com/ajax/libs/firacode/6.2.0/woff2/FiraCode-Regular.woff2") format("woff2"),
                url("https://cdnjs.cloudflare.com/ajax/libs/firacode/6.2.0/woff/FiraCode-Regular.woff") format("woff");
        font-style: normal;
        font-weight: 400;
    }
    @font-face {
        font-family: "Fira Code";
        src: local("FiraCode-Bold"),
                url("https://cdnjs.cloudflare.com/ajax/libs/firacode/6.2.0/woff2/FiraCode-Bold.woff2") format("woff2"),
                url("https://cdnjs.cloudflare.com/ajax/libs/firacode/6.2.0/woff/FiraCode-Bold.woff") format("woff");
        font-style: bold;
        font-weight: 700;
    }

    .terminal-2593080100-matrix {
        font-family: Fira Code, monospace;
        font-size: 20px;
        line-height: 24.4px;
        font-variant-east-asian: full-width;
    }

    .terminal-2593080100-title {
        font-size: 18px;
        font-weight: bold;
        font-family: arial;
    }

    .terminal-2593080100-r1 { fill: #c5c8c6 }
.terminal-2593080100-r2 { fill: #e0e0e0 }
.terminal-2593080100-r3 { fill: #c5c6c7 }
.terminal-2593080100-r4 { fill: #797979 }
.terminal-2593080100-r5 { fill: #ddedf9;font-weight: bold }
.terminal-2593080100-r6 { fill: #4f4f4f }
.terminal-2593080100-r7 { fill: #0178d4 }
.terminal-2593080100-r8 { fill: #262626 }
.terminal-2593080100-r9 { fill: #e0e0e0;font-weight: bold }
.terminal-2593080100-r10 { fill: #ffa62b;font-weight: bold }
.terminal-2593080100-r11 { fill: #495259 }
    </style>

    <defs>
    <clipPath id="terminal-2593080100-clip-terminal">
      <rect x="0" y="0" width="1463.0" height="1023.8" />
    </clipPath>
    <clipPath id="terminal-2593080100-line-0">
    <rect x="0" y="1.5" width="1464" height="24.65"/>
            </clipPath>
<clipPath id="terminal-2593080100-line-1">
    <rect x="0" y="25.9" width="1464" height="24.65"/>
            </clipPath>
<clipPath id="terminal-2593080100-line-2">
    <rect x="0" y="50.3" width="1464" height="24.65"/>
            </clipPath>
<clipPath id="terminal-2593080100-line-3">
    <rect x="0" y="74.7" width="1464" height="24.65"/>
            </clipPath>
<clipPath id="terminal-2593080100-line-4">
    <rect x="0" y="99.1" width="1464" height="24.65"/>
            </clipPath>
<clipPath id="terminal-2593080100-line-5">
    <rect x="0" y="123.5" width="1464" height="24.65"/>
            </clipPath>
<clipPath id="terminal-2593080100-line-6">
    <rect x="0" y="147.9" width="1464" height="24.65"/>
            </clipPath>
<clipPath id="terminal-2593080100-line-7">
    <rect x="0" y="172.3" width="1464" height="24.65"/>
            </clipPath>
<clipPath id="terminal-2593080100-line-8">
    <rect x="0" y="196.7" width="1464" height="24.65"/>
            </clipPath>
<clipPath id="terminal-2593080100-line-9">
    <rect x="0" y="221.1" width="1464" height="24.65"/>
            </clipPath>
<clipPath id="terminal-2593080100-line-10">
    <rect x="0" y="245.5" width="1464" height="24.65"/>
            </clipPath>
<clipPath id="terminal-2593080100-line-11">
    <rect x="0" y="269.9" width="1464" height="24.65"/>
            </clipPath>
<clipPath id="terminal-2593080100-line-12">
    <rect x="0" y="294.3" width="1464" height="24.65"/>
            </clipPath>
<clipPath id="terminal-2593080100-line-13">
    <rect x="0" y="318.7" width="1464" height="24.65"/>
            </clipPath>
<clipPath id="terminal-2593080100-line-14">
    <rect x="0" y="343.1" width="1464" height="24.65"/>
            </clipPath>
<clipPath id="terminal-2593080100-line-15">
    <rect x="0" y="367.5" width="1464" height="24.65"/>
            </clipPath>
<clipPath id="terminal-2593080100-line-16">
    <rect x="0" y="391.9" width="1464" height="24.65"/>
            </clipPath>
<clipPath id="terminal-2593080100-line-17">
    <rect x="0" y="416.3" width="1464" height="24.65"/>
            </clipPath>
<clipPath id="terminal-2593080100-line-18">
    <rect x="0" y="440.7" width="1464" height="24.65"/>
            </clipPath>
<clipPath id="terminal-2593080100-line-19">
    <rect x="0" y="465.1" width="1464" height="24.65"/>
            </clipPath>
<clipPath id="terminal-2593080100-line-20">
    <rect x="0" y="489.5" width="1464" height="24.65"/>
            </clipPath>
<clipPath id="terminal-2593080100-line-21">
    <rect x="0" y="513.9" width="1464" height="24.65"/>
            </clipPath>
<clipPath id="terminal-2593080100-line-22">
    <rect x="0" y="538.3" width="1464" height="24.65"/>
            </clipPath>
<clipPath id="terminal-2593080100-line-23">
    <rect x="0" y="562.7" width="1464" height="24.65"/>
            </clipPath>
<clipPath id="terminal-2593080100-line-24">
    <rect x="0" y="587.1" width="1464" height="24.65"/>
            </clipPath>
<clipPath id="terminal-2593080100-line-25">
    <rect x="0" y="611.5" width="1464" height="24.65"/>
            </clipPath>
<clipPath id="terminal-2593080100-line-26">
    <rect x="0" y="635.9" width="1464" height="24.65"/>
            </clipPath>
<clipPath id="terminal-2593080100-line-27">
    <rect x="0" y="660.3" width="1464" height="24.65"/>
            </clipPath>
<clipPath id="terminal-2593080100-line-28">
    <rect x="0" y="684.7" width="1464" height="24.65"/>
            </clipPath>
<clipPath id="terminal-2593080100-line-29">
    <rect x="0" y="709.1" width="1464" height="24.65"/>
            </clipPath>
<clipPath id="terminal-2593080100-line-30">
    <rect x="0" y="733.5" width="1464" height="24.65"/>
            </clipPath>
<clipPath id="terminal-2593080100-line-31">
    <rect x="0" y="757.9" width="1464" height="24.65"/>
            </clipPath>
<clipPath id="terminal-2593080100-line-32">
    <rect x="0" y="782.3" width="1464" height="24.65"/>
            </clipPath>
<clipPath id="terminal-2593080100-line-33">
    <rect x="0" y="806.7" width="1464" height="24.65"/>
            </clipPath>
<clipPath id="terminal-2593080100-line-34">
    <rect x="0" y="831.1" width="1464" height="24.65"/>
            </clipPath>
<clipPath id="terminal-2593080100-line-35">
    <rect x="0" y="855.5" width="1464" height="24.65"/>
            </clipPath>
<clipPath id="terminal-2593080100-line-36">
    <rect x="0" y="879.9" width="1464" height="24.65"/>
            </clipPath>
<clipPath id="terminal-2593080100-line-37">
    <rect x="0" y="904.3" width="1464" height="24.65"/>
            </clipPath>
<clipPath id="terminal-2593080100-line-38">
    <rect x="0" y="928.7" width="1464" height="24.65"/>
            </clipPath>
<clipPath id="terminal-2593080100-line-39">
    <rect x="0" y="953.1" width="1464" height="24.65"/>
            </clipPath>
<clipPath id="terminal-2593080100-line-40">
    <rect x="0" y="977.5" width="1464" height="24.65"/>
            </clipPath>
    </defs>

    <rect fill="#292929" stroke="rgba(255,255,255,0.35)" stroke-width="1" x="1" y="1" width="1480" height="1072.8" rx="8"/><text class="terminal-2593080100-title" fill="#c5c8c6" text-anchor="middle" x="740" y="27">virtufin-tui&#160;—&#160;infra-workers</text>
            <g transform="translate(26,22)">
            <circle cx="0" cy="0" r="7" fill="#ff5f57"/>
            <circle cx="22" cy="0" r="7" fill="#febc2e"/>
            <circle cx="44" cy="0" r="7" fill="#28c840"/>
            </g>
        
    <g transform="translate(9, 41)" clip-path="url(#terminal-2593080100-clip-terminal)">
    <rect fill="#242f38" x="0" y="1.5" width="12.2" height="24.65" shape-rendering="crispEdges"/><rect fill="#242f38" x="12.2" y="1.5" width="12.2" height="24.65" shape-rendering="crispEdges"/><rect fill="#242f38" x="24.4" y="1.5" width="61" height="24.65" shape-rendering="crispEdges"/><rect fill="#242f38" x="85.4" y="1.5" width="12.2" height="24.65" shape-rendering="crispEdges"/><rect fill="#242f38" x="97.6" y="1.5" width="561.2" height="24.65" shape-rendering="crispEdges"/><rect fill="#242f38" x="658.8" y="1.5" width="122" height="24.65" shape-rendering="crispEdges"/><rect fill="#242f38" x="780.8" y="1.5" width="561.2" height="24.65" shape-rendering="crispEdges"/><rect fill="#2c363f" x="1342" y="1.5" width="12.2" height="24.65" shape-rendering="crispEdges"/><rect fill="#2c363f" x="1354.2" y="1.5" width="97.6" height="24.65" shape-rendering="crispEdges"/><rect fill="#2c363f" x="1451.8" y="1.5" width="12.2" height="24.65" shape-rendering="crispEdges"/><rect fill="#121212" x="0" y="25.9" width="12.2" height="24.65" shape-rendering="crispEdges"/><rect fill="#121212" x="12.2" y="25.9" width="48.8" height="24.65" shape-rendering="crispEdges"/><rect fill="#121212" x="61" y="25.9" width="12.2" height="24.65" shape-rendering="crispEdges"/><rect fill="#121212" x="73.2" y="25.9" width="12.2" height="24.65" shape-rendering="crispEdges"/><rect fill="#121212" x="85.4" y="25.9" width="85.4" height="24.65" shape-rendering="crispEdges"/><rect fill="#121212" x="170.8" y="25.9" width="12.2" height="24.65" shape-rendering="crispEdges"/><rect fill="#0178d4" x="183" y="25.9" width="12.2" height="24.65" shape-rendering="crispEdges"/><rect fill="#0178d4" x="195.2" y="25.9" width="61" height="24.65" shape-rendering="crispEdges"/><rect fill="#0178d4" x="256.2" y="25.9" width="12.2" height="24.65" shape-rendering="crispEdges"/><rect fill="#121212" x="268.4" y="25.9" width="1195.6" height="24.65" shape-rendering="crispEdges"/><rect fill="#121212" x="0" y="50.3" width="183" height="24.65" shape-rendering="crispEdges"/><rect fill="#121212" x="183" y="50.3" width="12.2" height="24.65" shape-rendering="crispEdges"/><rect fill="#121212" x="195.2" y="50.3" width="61" height="24.65" shape-rendering="crispEdges"/><rect fill="#121212" x="256.2" y="50.3" width="12.2" height="24.65" shape-rendering="crispEdges"/><rect fill="#121212" x="268.4" y="50.3" width="1195.6" height="24.65" shape-rendering="crispEdges"/><rect fill="#121212" x="0" y="74.7" width="12.2" height="24.65" shape-rendering="crispEdges"/><rect fill="#121212" x="12.2" y="74.7" width="109.8" height="24.65" shape-rendering="crispEdges"/><rect fill="#121212" x="122" y="74.7" width="12.2" height="24.65" shape-rendering="crispEdges"/><rect fill="#121212" x="134.2" y="74.7" width="12.2" height="24.65" shape-rendering="crispEdges"/><rect fill="#121212" x="146.4" y="74.7" width="158.6" height="24.65" shape-rendering="crispEdges"/><rect fill="#121212" x="305" y="74.7" width="12.2" height="24.65" shape-rendering="crispEdges"/><rect fill="#121212" x="317.2" y="74.7" width="12.2" height="24.65" shape-rendering="crispEdges"/><rect fill="#121212" x="329.4" y="74.7" width="109.8" height="24.65" shape-rendering="crispEdges"/><rect fill="#121212" x="439.2" y="74.7" width="12.2" height="24.65" shape-rendering="crispEdges"/><rect fill="#121212" x="451.4" y="74.7" width="12.2" height="24.65" shape-rendering="crispEdges"/><rect fill="#121212" x="463.6" y="74.7" width="122" height="24.65" shape-rendering="crispEdges"/><rect fill="#121212" x="585.6" y="74.7" width="12.2" height="24.65" shape-rendering="crispEdges"/><rect fill="#121212" x="597.8" y="74.7" width="12.2" height="24.65" shape-rendering="crispEdges"/><rect fill="#121212" x="610" y="74.7" width="97.6" height="24.65" shape-rendering="crispEdges"/><rect fill="#121212" x="707.6" y="74.7" width="12.2" height="24.65" shape-rendering="crispEdges"/><rect fill="#121212" x="719.8" y="74.7" width="12.2" height="24.65" shape-rendering="crispEdges"/><rect fill="#121212" x="732" y="74.7" width="97.6" height="24.65" shape-rendering="crispEdges"/><rect fill="#121212" x="829.6" y="74.7" width="12.2" height="24.65" shape-rendering="crispEdges"/><rect fill="#121212" x="841.8" y="74.7" width="622.2" height="24.65" shape-rendering="crispEdges"/><rect fill="#121212" x="0" y="99.1" width="12.2" height="24.65" shape-rendering="crispEdges"/><rect fill="#121212" x="12.2" y="99.1" width="109.8" height="24.65" shape-rendering="crispEdges"/><rect fill="#121212" x="122" y="99.1" width="12.2" height="24.65" shape-rendering="crispEdges"/><rect fill="#121212" x="134.2" y="99.1" width="1329.8" height="24.65" shape-rendering="crispEdges"/><rect fill="#121212" x="0" y="123.5" width="122" height="24.65" shape-rendering="crispEdges"/><rect fill="#121212" x="122" y="123.5" width="1342" height="24.65" shape-rendering="crispEdges"/><rect fill="#242f38" x="0" y="147.9" width="122" height="24.65" shape-rendering="crispEdges"/><rect fill="#242f38" x="122" y="147.9" width="317.2" height="24.65" shape-rendering="crispEdges"/><rect fill="#242f38" x="439.2" y="147.9" width="280.6" height="24.65" shape-rendering="crispEdges"/><rect fill="#242f38" x="719.8" y="147.9" width="109.8" height="24.65" shape-rendering="crispEdges"/><rect fill="#242f38" x="829.6" y="147.9" width="292.8" height="24.65" shape-rendering="crispEdges"/><rect fill="#242f38" x="1122.4" y="147.9" width="341.6" height="24.65" shape-rendering="crispEdges"/><rect fill="#153854" x="0" y="172.3" width="122" height="24.65" shape-rendering="crispEdges"/><rect fill="#153854" x="122" y="172.3" width="317.2" height="24.65" shape-rendering="crispEdges"/><rect fill="#153854" x="439.2" y="172.3" width="280.6" height="24.65" shape-rendering="crispEdges"/><rect fill="#153854" x="719.8" y="172.3" width="109.8" height="24.65" shape-rendering="crispEdges"/><rect fill="#153854" x="829.6" y="172.3" width="292.8" height="24.65" shape-rendering="crispEdges"/><rect fill="#153854" x="1122.4" y="172.3" width="341.6" height="24.65" shape-rendering="crispEdges"/><rect fill="#1e1e1e" x="0" y="196.7" width="122" height="24.65" shape-rendering="crispEdges"/><rect fill="#1e1e1e" x="122" y="196.7" width="317.2" height="24.65" shape-rendering="crispEdges"/><rect fill="#1e1e1e" x="439.2" y="196.7" width="280.6" height="24.65" shape-rendering="crispEdges"/><rect fill="#1e1e1e" x="719.8" y="196.7" width="109.8" height="24.65" shape-rendering="crispEdges"/><rect fill="#1e1e1e" x="829.6" y="196.7" width="292.8" height="24.65" shape-rendering="crispEdges"/><rect fill="#1e1e1e" x="1122.4" y="196.7" width="341.6" height="24.65" shape-rendering="crispEdges"/><rect fill="#1e1e1e" x="0" y="221.1" width="122" height="24.65" shape-rendering="crispEdges"/><rect fill="#1e1e1e" x="122" y="221.1" width="317.2" height="24.65" shape-rendering="crispEdges"/><rect fill="#1e1e1e" x="439.2" y="221.1" width="280.6" height="24.65" shape-rendering="crispEdges"/><rect fill="#1e1e1e" x="719.8" y="221.1" width="109.8" height="24.65" shape-rendering="crispEdges"/><rect fill="#1e1e1e" x="829.6" y="221.1" width="292.8" height="24.65" shape-rendering="crispEdges"/><rect fill="#1e1e1e" x="1122.4" y="221.1" width="341.6" height="24.65" shape-rendering="crispEdges"/><rect fill="#121212" x="0" y="245.5" width="1464" height="24.65" shape-rendering="crispEdges"/><rect fill="#121212" x="0" y="269.9" width="1464" height="24.65" shape-rendering="crispEdges"/><rect fill="#121212" x="0" y="294.3" width="1464" height="24.65" shape-rendering="crispEdges"/><rect fill="#121212" x="0" y="318.7" width="1464" height="24.65" shape-rendering="crispEdges"/><rect fill="#121212" x="0" y="343.1" width="1464" height="24.65" shape-rendering="crispEdges"/><rect fill="#121212" x="0" y="367.5" width="1464" height="24.65" shape-rendering="crispEdges"/><rect fill="#121212" x="0" y="391.9" width="1464" height="24.65" shape-rendering="crispEdges"/><rect fill="#121212" x="0" y="416.3" width="1464" height="24.65" shape-rendering="crispEdges"/><rect fill="#121212" x="0" y="440.7" width="1464" height="24.65" shape-rendering="crispEdges"/><rect fill="#121212" x="0" y="465.1" width="1464" height="24.65" shape-rendering="crispEdges"/><rect fill="#121212" x="0" y="489.5" width="1464" height="24.65" shape-rendering="crispEdges"/><rect fill="#121212" x="0" y="513.9" width="1464" height="24.65" shape-rendering="crispEdges"/><rect fill="#121212" x="0" y="538.3" width="1464" height="24.65" shape-rendering="crispEdges"/><rect fill="#121212" x="0" y="562.7" width="1464" height="24.65" shape-rendering="crispEdges"/><rect fill="#121212" x="0" y="587.1" width="1464" height="24.65" shape-rendering="crispEdges"/><rect fill="#121212" x="0" y="611.5" width="1464" height="24.65" shape-rendering="crispEdges"/><rect fill="#121212" x="0" y="635.9" width="1464" height="24.65" shape-rendering="crispEdges"/><rect fill="#121212" x="0" y="660.3" width="1464" height="24.65" shape-rendering="crispEdges"/><rect fill="#121212" x="0" y="684.7" width="1464" height="24.65" shape-rendering="crispEdges"/><rect fill="#121212" x="0" y="709.1" width="1464" height="24.65" shape-rendering="crispEdges"/><rect fill="#121212" x="0" y="733.5" width="1464" height="24.65" shape-rendering="crispEdges"/><rect fill="#121212" x="0" y="757.9" width="1464" height="24.65" shape-rendering="crispEdges"/><rect fill="#121212" x="0" y="782.3" width="1464" height="24.65" shape-rendering="crispEdges"/><rect fill="#121212" x="0" y="806.7" width="1464" height="24.65" shape-rendering="crispEdges"/><rect fill="#121212" x="0" y="831.1" width="1464" height="24.65" shape-rendering="crispEdges"/><rect fill="#121212" x="0" y="855.5" width="1464" height="24.65" shape-rendering="crispEdges"/><rect fill="#121212" x="0" y="879.9" width="1464" height="24.65" shape-rendering="crispEdges"/><rect fill="#121212" x="0" y="904.3" width="1464" height="24.65" shape-rendering="crispEdges"/><rect fill="#121212" x="0" y="928.7" width="1464" height="24.65" shape-rendering="crispEdges"/><rect fill="#121212" x="0" y="953.1" width="1464" height="24.65" shape-rendering="crispEdges"/><rect fill="#121212" x="0" y="977.5" width="0" height="24.65" shape-rendering="crispEdges"/><rect fill="#121212" x="0" y="977.5" width="1464" height="24.65" shape-rendering="crispEdges"/><rect fill="#242f38" x="0" y="1001.9" width="36.6" height="24.65" shape-rendering="crispEdges"/><rect fill="#242f38" x="36.6" y="1001.9" width="122" height="24.65" shape-rendering="crispEdges"/><rect fill="#242f38" x="158.6" y="1001.9" width="36.6" height="24.65" shape-rendering="crispEdges"/><rect fill="#242f38" x="195.2" y="1001.9" width="122" height="24.65" shape-rendering="crispEdges"/><rect fill="#242f38" x="317.2" y="1001.9" width="36.6" height="24.65" shape-rendering="crispEdges"/><rect fill="#242f38" x="353.8" y="1001.9" width="61" height="24.65" shape-rendering="crispEdges"/><rect fill="#242f38" x="414.8" y="1001.9" width="36.6" height="24.65" shape-rendering="crispEdges"/><rect fill="#242f38" x="451.4" y="1001.9" width="97.6" height="24.65" shape-rendering="crispEdges"/><rect fill="#242f38" x="549" y="1001.9" width="36.6" height="24.65" shape-rendering="crispEdges"/><rect fill="#242f38" x="585.6" y="1001.9" width="85.4" height="24.65" shape-rendering="crispEdges"/><rect fill="#242f38" x="671" y="1001.9" width="36.6" height="24.65" shape-rendering="crispEdges"/><rect fill="#242f38" x="707.6" y="1001.9" width="85.4" height="24.65" shape-rendering="crispEdges"/><rect fill="#242f38" x="793" y="1001.9" width="36.6" height="24.65" shape-rendering="crispEdges"/><rect fill="#242f38" x="829.6" y="1001.9" width="85.4" height="24.65" shape-rendering="crispEdges"/><rect fill="#242f38" x="915" y="1001.9" width="402.6" height="24.65" shape-rendering="crispEdges"/><rect fill="#242f38" x="1317.6" y="1001.9" width="12.2" height="24.65" shape-rendering="crispEdges"/><rect fill="#242f38" x="1329.8" y="1001.9" width="24.4" height="24.65" shape-rendering="crispEdges"/><rect fill="#242f38" x="1354.2" y="1001.9" width="97.6" height="24.65" shape-rendering="crispEdges"/><rect fill="#242f38" x="1451.8" y="1001.9" width="12.2" height="24.65" shape-rendering="crispEdges"/>
    <g class="terminal-2593080100-matrix">
    <text class="terminal-2593080100-r2" x="12.2" y="20" textLength="12.2" clip-path="url(#terminal-2593080100-line-0)">⭘</text><text class="terminal-2593080100-r2" x="658.8" y="20" textLength="122" clip-path="url(#terminal-2593080100-line-0)">HarnessApp</text><text class="terminal-2593080100-r3" x="1354.2" y="20" textLength="97.6" clip-path="url(#terminal-2593080100-line-0)">13:19:12</text><text class="terminal-2593080100-r1" x="1464" y="20" textLength="12.2" clip-path="url(#terminal-2593080100-line-0)">
</text><text class="terminal-2593080100-r4" x="12.2" y="44.4" textLength="48.8" clip-path="url(#terminal-2593080100-line-1)">Home</text><text class="terminal-2593080100-r4" x="85.4" y="44.4" textLength="85.4" clip-path="url(#terminal-2593080100-line-1)">Trading</text><text class="terminal-2593080100-r5" x="195.2" y="44.4" textLength="61" clip-path="url(#terminal-2593080100-line-1)">Infra</text><text class="terminal-2593080100-r1" x="1464" y="44.4" textLength="12.2" clip-path="url(#terminal-2593080100-line-1)">
</text><text class="terminal-2593080100-r6" x="0" y="68.8" textLength="183" clip-path="url(#terminal-2593080100-line-2)">━━━━━━━━━━━━━━━</text><text class="terminal-2593080100-r6" x="183" y="68.8" textLength="12.2" clip-path="url(#terminal-2593080100-line-2)">╸</text><text class="terminal-2593080100-r7" x="195.2" y="68.8" textLength="61" clip-path="url(#terminal-2593080100-line-2)">━━━━━</text><text class="terminal-2593080100-r6" x="256.2" y="68.8" textLength="12.2" clip-path="url(#terminal-2593080100-line-2)">╺</text><text class="terminal-2593080100-r6" x="268.4" y="68.8" textLength="1195.6" clip-path="url(#terminal-2593080100-line-2)">━━━━━━━━━━━━━━━━━━━━━━━━━━━━━━━━━━━━━━━━━━━━━━━━━━━━━━━━━━━━━━━━━━━━━━━━━━━━━━━━━━━━━━━━━━━━━━━━━━</text><text class="terminal-2593080100-r1" x="1464" y="68.8" textLength="12.2" clip-path="url(#terminal-2593080100-line-2)">
</text><text class="terminal-2593080100-r2" x="12.2" y="93.2" textLength="109.8" clip-path="url(#terminal-2593080100-line-3)">1&#160;Workers</text><text class="terminal-2593080100-r4" x="146.4" y="93.2" textLength="158.6" clip-path="url(#terminal-2593080100-line-3)">2&#160;Connections</text><text class="terminal-2593080100-r4" x="329.4" y="93.2" textLength="109.8" clip-path="url(#terminal-2593080100-line-3)">3&#160;Scripts</text><text class="terminal-2593080100-r4" x="463.6" y="93.2" textLength="122" clip-path="url(#terminal-2593080100-line-3)">4&#160;Triggers</text><text class="terminal-2593080100-r4" x="610" y="93.2" textLength="97.6" clip-path="url(#terminal-2593080100-line-3)">5&#160;Events</text><text class="terminal-2593080100-r4" x="732" y="93.2" textLength="97.6" clip-path="url(#terminal-2593080100-line-3)">6&#160;Config</text><text class="terminal-2593080100-r1" x="1464" y="93.2" textLength="12.2" clip-path="url(#terminal-2593080100-line-3)">
</text><text class="terminal-2593080100-r8" x="0" y="117.6" textLength="12.2" clip-path="url(#terminal-2593080100-line-4)">╸</text><text class="terminal-2593080100-r7" x="12.2" y="117.6" textLength="109.8" clip-path="url(#terminal-2593080100-line-4)">━━━━━━━━━</text><text class="terminal-2593080100-r8" x="122" y="117.6" textLength="12.2" clip-path="url(#terminal-2593080100-line-4)">╺</text><text class="terminal-2593080100-r8" x="134.2" y="117.6" textLength="1329.8" clip-path="url(#terminal-2593080100-line-4)">━━━━━━━━━━━━━━━━━━━━━━━━━━━━━━━━━━━━━━━━━━━━━━━━━━━━━━━━━━━━━━━━━━━━━━━━━━━━━━━━━━━━━━━━━━━━━━━━━━━━━━━━━━━━━</text><text class="terminal-2593080100-r1" x="1464" y="117.6" textLength="12.2" clip-path="url(#terminal-2593080100-line-4)">
</text><text class="terminal-2593080100-r2" x="0" y="142" textLength="122" clip-path="url(#terminal-2593080100-line-5)">workers:&#160;3</text><text class="terminal-2593080100-r1" x="1464" y="142" textLength="12.2" clip-path="url(#terminal-2593080100-line-5)">
</text><text class="terminal-2593080100-r9" x="0" y="166.4" textLength="122" clip-path="url(#terminal-2593080100-line-6)">&#160;ID&#160;&#160;&#160;&#160;&#160;&#160;&#160;</text><text class="terminal-2593080100-r9" x="122" y="166.4" textLength="317.2" clip-path="url(#terminal-2593080100-line-6)">&#160;MIME&#160;&#160;&#160;&#160;&#160;&#160;&#160;&#160;&#160;&#160;&#160;&#160;&#160;&#160;&#160;&#160;&#160;&#160;&#160;&#160;&#160;</text><text class="terminal-2593080100-r9" x="439.2" y="166.4" textLength="280.6" clip-path="url(#terminal-2593080100-line-6)">&#160;Topic&#160;&#160;&#160;&#160;&#160;&#160;&#160;&#160;&#160;&#160;&#160;&#160;&#160;&#160;&#160;&#160;&#160;</text><text class="terminal-2593080100-r9" x="719.8" y="166.4" textLength="109.8" clip-path="url(#terminal-2593080100-line-6)">&#160;Status&#160;&#160;</text><text class="terminal-2593080100-r9" x="829.6" y="166.4" textLength="292.8" clip-path="url(#terminal-2593080100-line-6)">&#160;Tags&#160;&#160;&#160;&#160;&#160;&#160;&#160;&#160;&#160;&#160;&#160;&#160;&#160;&#160;&#160;&#160;&#160;&#160;&#160;</text><text class="terminal-2593080100-r1" x="1464" y="166.4" textLength="12.2" clip-path="url(#terminal-2593080100-line-6)">
</text><text class="terminal-2593080100-r2" x="0" y="190.8" textLength="122" clip-path="url(#terminal-2593080100-line-7)">&#160;a1b2c3d4&#160;</text><text class="terminal-2593080100-r2" x="122" y="190.8" textLength="317.2" clip-path="url(#terminal-2593080100-line-7)">&#160;text/x-python&#160;&#160;&#160;&#160;&#160;&#160;&#160;&#160;&#160;&#160;&#160;&#160;</text><text class="terminal-2593080100-r2" x="439.2" y="190.8" textLength="280.6" clip-path="url(#terminal-2593080100-line-7)">&#160;workmanager.commands&#160;&#160;</text><text class="terminal-2593080100-r2" x="719.8" y="190.8" textLength="109.8" clip-path="url(#terminal-2593080100-line-7)">&#160;running&#160;</text><text class="terminal-2593080100-r2" x="829.6" y="190.8" textLength="292.8" clip-path="url(#terminal-2593080100-line-7)">&#160;env=prod,&#160;team=trading&#160;</text><text class="terminal-2593080100-r1" x="1464" y="190.8" textLength="12.2" clip-path="url(#terminal-2593080100-line-7)">
</text><text class="terminal-2593080100-r2" x="0" y="215.2" textLength="122" clip-path="url(#terminal-2593080100-line-8)">&#160;b2c3d4e5&#160;</text><text class="terminal-2593080100-r2" x="122" y="215.2" textLength="317.2" clip-path="url(#terminal-2593080100-line-8)">&#160;application/x-dotnet-dll&#160;</text><text class="terminal-2593080100-r2" x="439.2" y="215.2" textLength="280.6" clip-path="url(#terminal-2593080100-line-8)">&#160;binance.orders&#160;&#160;&#160;&#160;&#160;&#160;&#160;&#160;</text><text class="terminal-2593080100-r2" x="719.8" y="215.2" textLength="109.8" clip-path="url(#terminal-2593080100-line-8)">&#160;running&#160;</text><text class="terminal-2593080100-r2" x="829.6" y="215.2" textLength="292.8" clip-path="url(#terminal-2593080100-line-8)">&#160;env=prod&#160;&#160;&#160;&#160;&#160;&#160;&#160;&#160;&#160;&#160;&#160;&#160;&#160;&#160;&#160;</text><text class="terminal-2593080100-r1" x="1464" y="215.2" textLength="12.2" clip-path="url(#terminal-2593080100-line-8)">
</text><text class="terminal-2593080100-r2" x="0" y="239.6" textLength="122" clip-path="url(#terminal-2593080100-line-9)">&#160;c3d4e5f6&#160;</text><text class="terminal-2593080100-r2" x="122" y="239.6" textLength="317.2" clip-path="url(#terminal-2593080100-line-9)">&#160;text/x-python&#160;&#160;&#160;&#160;&#160;&#160;&#160;&#160;&#160;&#160;&#160;&#160;</text><text class="terminal-2593080100-r2" x="439.2" y="239.6" textLength="280.6" clip-path="url(#terminal-2593080100-line-9)">&#160;scenario.hypothetical&#160;</text><text class="terminal-2593080100-r2" x="719.8" y="239.6" textLength="109.8" clip-path="url(#terminal-2593080100-line-9)">&#160;stopped&#160;</text><text class="terminal-2593080100-r2" x="829.6" y="239.6" textLength="292.8" clip-path="url(#terminal-2593080100-line-9)">&#160;env=staging&#160;&#160;&#160;&#160;&#160;&#160;&#160;&#160;&#160;&#160;&#160;&#160;</text><text class="terminal-2593080100-r1" x="1464" y="239.6" textLength="12.2" clip-path="url(#terminal-2593080100-line-9)">
</text><text class="terminal-2593080100-r1" x="1464" y="264" textLength="12.2" clip-path="url(#terminal-2593080100-line-10)">
</text><text class="terminal-2593080100-r1" x="1464" y="288.4" textLength="12.2" clip-path="url(#terminal-2593080100-line-11)">
</text><text class="terminal-2593080100-r1" x="1464" y="312.8" textLength="12.2" clip-path="url(#terminal-2593080100-line-12)">
</text><text class="terminal-2593080100-r1" x="1464" y="337.2" textLength="12.2" clip-path="url(#terminal-2593080100-line-13)">
</text><text class="terminal-2593080100-r1" x="1464" y="361.6" textLength="12.2" clip-path="url(#terminal-2593080100-line-14)">
</text><text class="terminal-2593080100-r1" x="1464" y="386" textLength="12.2" clip-path="url(#terminal-2593080100-line-15)">
</text><text class="terminal-2593080100-r1" x="1464" y="410.4" textLength="12.2" clip-path="url(#terminal-2593080100-line-16)">
</text><text class="terminal-2593080100-r1" x="1464" y="434.8" textLength="12.2" clip-path="url(#terminal-2593080100-line-17)">
</text><text class="terminal-2593080100-r1" x="1464" y="459.2" textLength="12.2" clip-path="url(#terminal-2593080100-line-18)">
</text><text class="terminal-2593080100-r1" x="1464" y="483.6" textLength="12.2" clip-path="url(#terminal-2593080100-line-19)">
</text><text class="terminal-2593080100-r1" x="1464" y="508" textLength="12.2" clip-path="url(#terminal-2593080100-line-20)">
</text><text class="terminal-2593080100-r1" x="1464" y="532.4" textLength="12.2" clip-path="url(#terminal-2593080100-line-21)">
</text><text class="terminal-2593080100-r1" x="1464" y="556.8" textLength="12.2" clip-path="url(#terminal-2593080100-line-22)">
</text><text class="terminal-2593080100-r1" x="1464" y="581.2" textLength="12.2" clip-path="url(#terminal-2593080100-line-23)">
</text><text class="terminal-2593080100-r1" x="1464" y="605.6" textLength="12.2" clip-path="url(#terminal-2593080100-line-24)">
</text><text class="terminal-2593080100-r1" x="1464" y="630" textLength="12.2" clip-path="url(#terminal-2593080100-line-25)">
</text><text class="terminal-2593080100-r1" x="1464" y="654.4" textLength="12.2" clip-path="url(#terminal-2593080100-line-26)">
</text><text class="terminal-2593080100-r1" x="1464" y="678.8" textLength="12.2" clip-path="url(#terminal-2593080100-line-27)">
</text><text class="terminal-2593080100-r1" x="1464" y="703.2" textLength="12.2" clip-path="url(#terminal-2593080100-line-28)">
</text><text class="terminal-2593080100-r1" x="1464" y="727.6" textLength="12.2" clip-path="url(#terminal-2593080100-line-29)">
</text><text class="terminal-2593080100-r1" x="1464" y="752" textLength="12.2" clip-path="url(#terminal-2593080100-line-30)">
</text><text class="terminal-2593080100-r1" x="1464" y="776.4" textLength="12.2" clip-path="url(#terminal-2593080100-line-31)">
</text><text class="terminal-2593080100-r1" x="1464" y="800.8" textLength="12.2" clip-path="url(#terminal-2593080100-line-32)">
</text><text class="terminal-2593080100-r1" x="1464" y="825.2" textLength="12.2" clip-path="url(#terminal-2593080100-line-33)">
</text><text class="terminal-2593080100-r1" x="1464" y="849.6" textLength="12.2" clip-path="url(#terminal-2593080100-line-34)">
</text><text class="terminal-2593080100-r1" x="1464" y="874" textLength="12.2" clip-path="url(#terminal-2593080100-line-35)">
</text><text class="terminal-2593080100-r1" x="1464" y="898.4" textLength="12.2" clip-path="url(#terminal-2593080100-line-36)">
</text><text class="terminal-2593080100-r1" x="1464" y="922.8" textLength="12.2" clip-path="url(#terminal-2593080100-line-37)">
</text><text class="terminal-2593080100-r1" x="1464" y="947.2" textLength="12.2" clip-path="url(#terminal-2593080100-line-38)">
</text><text class="terminal-2593080100-r1" x="1464" y="971.6" textLength="12.2" clip-path="url(#terminal-2593080100-line-39)">
</text><text class="terminal-2593080100-r1" x="1464" y="996" textLength="12.2" clip-path="url(#terminal-2593080100-line-40)">
</text><text class="terminal-2593080100-r10" x="0" y="1020.4" textLength="36.6" clip-path="url(#terminal-2593080100-line-41)">&#160;←&#160;</text><text class="terminal-2593080100-r2" x="36.6" y="1020.4" textLength="122" clip-path="url(#terminal-2593080100-line-41)">Prev&#160;view&#160;</text><text class="terminal-2593080100-r10" x="158.6" y="1020.4" textLength="36.6" clip-path="url(#terminal-2593080100-line-41)">&#160;→&#160;</text><text class="terminal-2593080100-r2" x="195.2" y="1020.4" textLength="122" clip-path="url(#terminal-2593080100-line-41)">Next&#160;view&#160;</text><text class="terminal-2593080100-r10" x="317.2" y="1020.4" textLength="36.6" clip-path="url(#terminal-2593080100-line-41)">&#160;?&#160;</text><text class="terminal-2593080100-r2" x="353.8" y="1020.4" textLength="61" clip-path="url(#terminal-2593080100-line-41)">Help&#160;</text><text class="terminal-2593080100-r10" x="414.8" y="1020.4" textLength="36.6" clip-path="url(#terminal-2593080100-line-41)">&#160;r&#160;</text><text class="terminal-2593080100-r2" x="451.4" y="1020.4" textLength="97.6" clip-path="url(#terminal-2593080100-line-41)">Refresh&#160;</text><text class="terminal-2593080100-r10" x="549" y="1020.4" textLength="36.6" clip-path="url(#terminal-2593080100-line-41)">&#160;a&#160;</text><text class="terminal-2593080100-r2" x="585.6" y="1020.4" textLength="85.4" clip-path="url(#terminal-2593080100-line-41)">Action&#160;</text><text class="terminal-2593080100-r10" x="671" y="1020.4" textLength="36.6" clip-path="url(#terminal-2593080100-line-41)">&#160;d&#160;</text><text class="terminal-2593080100-r2" x="707.6" y="1020.4" textLength="85.4" clip-path="url(#terminal-2593080100-line-41)">Delete&#160;</text><text class="terminal-2593080100-r10" x="793" y="1020.4" textLength="36.6" clip-path="url(#terminal-2593080100-line-41)">&#160;⏎&#160;</text><text class="terminal-2593080100-r2" x="829.6" y="1020.4" textLength="85.4" clip-path="url(#terminal-2593080100-line-41)">Detail&#160;</text><text class="terminal-2593080100-r11" x="1317.6" y="1020.4" textLength="12.2" clip-path="url(#terminal-2593080100-line-41)">▏</text><text class="terminal-2593080100-r10" x="1329.8" y="1020.4" textLength="24.4" clip-path="url(#terminal-2593080100-line-41)">^p</text><text class="terminal-2593080100-r2" x="1354.2" y="1020.4" textLength="97.6" clip-path="url(#terminal-2593080100-line-41)">&#160;palette</text>
    </g>
    </g>
</svg>
